<?xml version="1.0" encoding="UTF-8"?><svg id="Layer_2" xmlns="http://www.w3.org/2000/svg" viewBox="0 0 1104.65 207.9969"><g id="Components"><g id="_649d7425-1b9e-4bed-b600-f27e60619a30_13"><path d="m180.847,156.002h-51.666c-14.269,0-25.833-11.637-25.833-25.998s-11.5631-25.997-25.8327-25.997-25.833-11.6373-25.833-25.9978-11.5633-25.9975-25.8329-25.9975h-.0164c-14.2697,0-25.833,11.637-25.833,25.9975v51.9948c0,14.361,11.5634,25.998,25.833,25.998s25.8329,11.637,25.8329,25.997,11.5634,25.998,25.8329,25.998h103.3481c14.27,0,25.8329-11.637,25.8329-25.998s-11.563-25.997-25.8329-25.997Z" style="fill:#0e0e0e; fill-rule:evenodd; stroke-width:0px;"/><path d="m77.5205,51.995c14.2696,0,25.8325,11.637,25.8325,25.9975s11.564,25.9975,25.833,25.9975,25.833-11.637,25.833-25.9975,11.564-25.9975,25.833-25.9975,25.8329-11.637,25.8329-25.9975c.033-14.3605-11.53-25.9975-25.8-25.9975h-103.3645c-14.2697,0-25.833,11.637-25.833,25.9975s11.5634,25.9975,25.833,25.9975Z" style="fill:#0e0e0e; fill-rule:evenodd; stroke-width:0px;"/><path d="m346.268,56.6826c-7.77-4.254-16.19-6.3896-26.39-6.3896s-19.218,2.2045-27.0569,6.5791c-7.821,4.3746-13.9301,10.6437-18.277,18.7729-4.347,8.1292-6.521,17.7051-6.521,28.349s2.208,20.03,6.623,28.159c4.416,8.147,10.56,14.433,18.466,18.876,7.89,4.444,16.823,6.666,26.766,6.666,12.3051,0,22.6931-3.221,31.148-9.662,7.495-5.701,12.835-12.814,16.035-21.322.616-1.619-.565-3.359-2.293-3.359h-21.923c-1.677,0-3.217.896-4.09,2.325-4.193,6.838-10.662,10.248-19.424,10.248-6.709,0-12.374-2.136-16.977-6.39-3.988-3.685-6.486-8.628-7.479-14.777-.24-1.498.924-2.859,2.43-2.859h70.629v-.017c1.215,0,2.31-.999,2.447-2.205.274-2.428.428-5.08.428-7.939,0-10.1274-2.139-19.1178-6.435-26.9369-4.295-7.8192-10.336-13.8644-18.106-18.1185Zm-5.134,37.5631h-43.487c-1.557,0-2.738-1.464-2.395-2.9968,1.266-5.5974,3.799-10.0754,7.564-13.4338,4.415-3.9441,9.857-5.9075,16.326-5.9075,6.846,0,12.63,2.0323,17.354,6.0969,4.056,3.5135,6.435,8.0086,7.085,13.5027.171,1.4467-.993,2.7385-2.447,2.7385Z" style="fill:#0e0e0e; stroke-width:0px;"/><path d="m487.56,52.0137h-21.427c-1.352,0-2.447,1.1022-2.447,2.4628v8.7492c0,1.1884-1.455,1.7395-2.242.8439-3.149-3.5479-7.034-6.5619-11.655-9.0592-5.784-3.1345-12.544-4.7018-20.245-4.7018-8.831,0-16.823,2.2045-23.977,6.5791-7.153,4.3746-12.818,10.6437-16.977,18.7729v.0172c-4.158,8.1292-6.246,17.3262-6.246,27.9702s2.071,20.064,6.246,28.262c4.159,8.198,9.824,14.554,16.977,19.049,7.154,4.495,15.078,6.751,23.788,6.751,7.719,0,14.53-1.601,20.434-4.788,4.672-2.514,8.54-5.563,11.621-9.145.787-.913,2.276-.396,2.276.827v8.973c0,1.36,1.095,2.463,2.447,2.463h21.427c1.352,0,2.447-1.103,2.447-2.463V54.4765c0-1.3606-1.095-2.4628-2.447-2.4628Zm-27.622,68.4263c-2.499,4.564-5.853,8.06-10.08,10.506s-8.882,3.668-13.623,3.668-9.173-1.24-13.349-3.754c-4.158-2.515-7.513-6.097-10.063-10.799-2.549-4.702-3.833-10.179-3.833-16.43s1.284-11.6776,3.833-16.2416c2.55-4.5641,5.871-8.0432,9.978-10.4198,4.107-2.3768,8.574-3.5652,13.434-3.5652s9.3961,1.2401,13.623,3.6685,7.581,5.9419,10.08,10.5059c2.481,4.5813,3.731,10.0409,3.731,16.4302s-1.25,11.867-3.731,16.431Z" style="fill:#0e0e0e; stroke-width:0px;"/><path d="m568.511,50.5789c-5.887.3617-11.193,1.8945-15.899,4.6157-4.227,2.4629-7.838,5.6319-10.816,9.5414-.753.999-2.327.4995-2.327-.7578v-9.507c0-1.3606-1.096-2.4628-2.448-2.4628h-21.238c-1.352,0-2.447,1.1022-2.447,2.4628v99.0998c0,1.361,1.095,2.463,2.447,2.463h21.238c1.352,0,2.448-1.102,2.448-2.463v-49.36c0-9.6278,2.071-16.3963,6.246-20.2715,4.159-3.8751,10.337-5.8213,18.552-5.8213h4.4659c1.3521,0,2.4481-1.1023,2.4481-2.4629v-22.5791c0-1.464-1.233-2.5834-2.67-2.4973Z" style="fill:#0e0e0e; stroke-width:0px;"/><path d="m733.365,52.0266h-18.568c-1.849,0-3.457,1.2745-3.885,3.1002l-16.344,70.6483c-.308,1.309-2.191,1.326-2.516,0l-17.353-70.6999c-.4449-1.8084-2.054-3.0829-3.902-3.0829h-21.324c-1.848,0-3.457,1.2745-3.902,3.0657l-17.713,70.9581c-.342,1.326-2.207,1.309-2.515-.017l-16.361-70.9239c-.411-1.7912-2.003-3.0657-3.834-3.0657h-20.109c-1.625,0-2.806,1.5845-2.344,3.1518l28.648,98.0148c.48,1.688,2.02,2.842,3.765,2.842h22.385c1.78,0,3.355-1.223,3.8-2.962l16.823-64.8786c.342-1.2917,2.1559-1.2917,2.498,0l16.823,64.8786c.445,1.739,2.002,2.962,3.799,2.962h22.18c1.745,0,3.269-1.1541,3.765-2.842l28.477-98.0148.052.0172c.462-1.5845-.719-3.1519-2.345-3.1519Z" style="fill:#0e0e0e; stroke-width:0px;"/><path d="m820.329,56.9738c-8.095-4.4435-17.096-6.6652-27.057-6.6652s-18.9789,2.2217-27.0569,6.6652c-8.077,4.4608-14.444,10.7471-19.116,18.8763-4.672,8.1291-6.999,17.5156-6.999,28.1589s2.276,20.031,6.811,28.16c4.535,8.146,10.782,14.4319,18.74,18.876,7.957,4.443,16.788,6.665,26.868,6.665s19.185-2.222,27.331-6.665c8.146-4.444,14.6151-10.73,19.407-18.876,4.792-8.129,7.188-17.533,7.188-28.16s-2.328-20.0125-7-28.1589c-4.655-8.1464-11.038-14.4328-19.116-18.8763Zm-4.501,63.9312c-2.481,4.633-5.801,8.112-9.977,10.42v-.017c-4.176,2.325-8.625,3.479-13.349,3.479-7.444,0-13.64-2.653-18.551-7.975-4.929-5.304-7.376-12.917-7.376-22.803s2.533-17.4808,7.564-22.8026c5.031-5.3219,11.261-7.9742,18.7401-7.9742s13.776,2.6523,18.9449,7.9742c5.151,5.3218,7.735,12.9171,7.735,22.8026,0,6.631-1.249,12.263-3.731,16.896Z" style="fill:#0e0e0e; stroke-width:0px;"/><path d="m917.847,50.5789c-5.887.3617-11.193,1.8945-15.899,4.6157-4.227,2.4629-7.838,5.6319-10.816,9.5414-.753.999-2.327.4995-2.327-.7578v-9.507c0-1.3606-1.096-2.4628-2.448-2.4628h-21.238c-1.352,0-2.447,1.1022-2.447,2.4628v99.0998c0,1.361,1.095,2.463,2.447,2.463h21.238c1.352,0,2.448-1.102,2.448-2.463v-49.36c0-9.6278,2.07-16.3963,6.246-20.2715,4.159-3.8751,10.337-5.8213,18.552-5.8213h4.4319c1.369,0,2.4821-1.1195,2.4821-2.4973v-22.5447c0-1.464-1.233-2.5834-2.67-2.4973Z" style="fill:#0e0e0e; stroke-width:0px;"/><path d="m1092.99,62.2343h-.05c-7.7699-7.8192-18-11.7288-30.6899-11.7288-7.46,0-14.39,1.8084-20.79,5.4424-5.25,2.9796-9.48,6.7514-12.6799,11.3154-.98,1.3779-2.9601,1.3606-3.9-.0344-3.2899-4.8741-7.5699-8.7148-12.8199-11.5738-6.3301-3.4445-13.5551-5.1668-21.6331-5.1668-6.332,0-12.15,1.2572-17.439,3.7546-4.175,1.9978-7.752,4.564-10.73,7.7158-.804.8611-2.225.31-2.225-.8784v-6.6308c0-1.3606-1.095-2.4628-2.447-2.4628h-21.238c-1.3521,0-2.448,1.1022-2.448,2.4628v99.1005c0,1.36,1.0959,2.463,2.448,2.463h21.238c1.352,0,2.447-1.103,2.447-2.463v-54.9928c0-8.1464,2.071-14.3638,6.247-18.6868,4.158-4.3229,9.977-6.4757,17.062-6.4757s12.6819,2.1528,16.788,6.4757c4.11,4.323,6.16,10.5576,6.16,18.6868v54.9928c0,1.36,1.1,2.463,2.45,2.463h21.24c1.35,0,2.4401-1.103,2.4401-2.463v-54.9928c0-8.1464,2.08-14.3638,6.25-18.6868,4.1799-4.3229,9.8099-6.4757,16.89-6.4757,7.09,0,12.6799,2.1528,16.7899,6.4757,4.11,4.323,6.16,10.5576,6.16,18.6868v54.9928c0,1.36,1.1,2.463,2.45,2.463h21.24c1.3501,0,2.4501-1.103,2.4501-2.463v-58.5579c0-14.0194-3.89-24.9387-11.66-32.7578Z" style="fill:#0e0e0e; stroke-width:0px;"/></g></g></svg>